<?xml version="1.0" encoding="utf-8"?>
<!-- Generator: Adobe Illustrator 15.1.0, SVG Export Plug-In  -->
<!DOCTYPE svg PUBLIC "-//W3C//DTD SVG 1.1//EN" "http://www.w3.org/Graphics/SVG/1.1/DTD/svg11.dtd" [
	<!ENTITY ns_flows "http://ns.adobe.com/Flows/1.0/">
]>
<svg version="1.1"
	 xmlns="http://www.w3.org/2000/svg" xmlns:xlink="http://www.w3.org/1999/xlink" xmlns:a="http://ns.adobe.com/AdobeSVGViewerExtensions/3.0/"
	 x="0px" y="0px" width="20px" height="20px" viewBox="0 0 20 20" enable-background="new 0 0 20 20" xml:space="preserve">
<defs>
</defs>
<g>
	<defs>
		<rect id="SVGID_1_" width="19.681" height="19.682"/>
	</defs>
	<clipPath id="SVGID_2_">
		<use xlink:href="#SVGID_1_"  overflow="visible"/>
	</clipPath>
	<path clip-path="url(#SVGID_2_)" fill-rule="evenodd" clip-rule="evenodd" fill="#CDC2A4" d="M3.857,0h11.967
		c2.122,0,3.857,1.736,3.857,3.857v11.969c0,2.12-1.735,3.856-3.857,3.856H3.857C1.736,19.682,0,17.946,0,15.826V3.857
		C0,1.736,1.736,0,3.857,0 M14.854,12.065c0-0.746-0.204-1.34-0.612-1.781s-0.952-0.731-1.63-0.875V9.351
		c0.471-0.199,0.841-0.506,1.107-0.924c0.271-0.419,0.404-0.895,0.404-1.432c0-0.463-0.098-0.872-0.293-1.227
		c-0.194-0.352-0.488-0.637-0.882-0.849c-0.362-0.197-0.752-0.325-1.168-0.385c-0.416-0.063-1.028-0.093-1.834-0.093H6.064v10.99
		h4.399c0.764,0,1.391-0.068,1.885-0.207c0.496-0.139,0.95-0.368,1.362-0.692c0.352-0.272,0.628-0.612,0.834-1.025
		C14.751,13.092,14.854,12.612,14.854,12.065 M11.32,7.55c0-0.179-0.046-0.361-0.137-0.547s-0.231-0.322-0.426-0.406
		c-0.182-0.081-0.396-0.123-0.645-0.131c-0.249-0.007-0.62-0.01-1.111-0.01H8.81v2.326h0.348c0.471,0,0.803-0.005,0.993-0.016
		c0.188-0.009,0.385-0.06,0.587-0.153c0.219-0.103,0.372-0.247,0.455-0.428C11.277,8.001,11.32,7.789,11.32,7.55 M12.012,12.014
		c0-0.34-0.066-0.604-0.205-0.796c-0.14-0.194-0.346-0.338-0.62-0.436c-0.167-0.066-0.398-0.102-0.69-0.108
		c-0.293-0.008-0.686-0.011-1.177-0.011H8.81v2.752h0.149c0.718,0,1.214-0.006,1.489-0.016c0.274-0.01,0.557-0.075,0.841-0.199
		c0.252-0.108,0.434-0.267,0.55-0.476C11.954,12.516,12.012,12.279,12.012,12.014"/>
</g>
</svg>
