<?xml version="1.0" encoding="utf-8"?>
<!-- Generator: Adobe Illustrator 15.1.0, SVG Export Plug-In  -->
<!DOCTYPE svg PUBLIC "-//W3C//DTD SVG 1.1//EN" "http://www.w3.org/Graphics/SVG/1.1/DTD/svg11.dtd" [
	<!ENTITY ns_flows "http://ns.adobe.com/Flows/1.0/">
]>
<svg version="1.1"
	 xmlns="http://www.w3.org/2000/svg" xmlns:xlink="http://www.w3.org/1999/xlink" xmlns:a="http://ns.adobe.com/AdobeSVGViewerExtensions/3.0/"
	 x="0px" y="0px" width="20px" height="20px" viewBox="-2 -3.02 20 20" enable-background="new -2 -3.02 20 20"
	 xml:space="preserve">
<defs>
</defs>
<g>
	<defs>
		<rect id="SVGID_1_" width="16" height="13.961"/>
	</defs>
	<clipPath id="SVGID_2_">
		<use xlink:href="#SVGID_1_"  overflow="visible"/>
	</clipPath>
	<path clip-path="url(#SVGID_2_)" fill="#FFFFFF" d="M15.92,3.351c-0.896,5.036-5.889,9.301-7.392,10.275
		c-1.503,0.975-2.875-0.389-3.371-1.421c-0.57-1.177-2.275-7.554-2.721-8.083C1.99,3.595,0.649,4.651,0.649,4.651L0,3.799
		c0,0,2.721-3.25,4.791-3.657c2.196-0.431,2.193,3.372,2.722,5.482c0.511,2.042,0.854,3.21,1.3,3.21c0.447,0,1.3-1.138,2.233-2.883
		c0.935-1.747-0.04-3.291-1.868-2.194C9.908-0.629,16.813-1.684,15.92,3.351"/>
</g>
</svg>
