<?xml version="1.0" encoding="utf-8"?>
<!-- Generator: Adobe Illustrator 15.1.0, SVG Export Plug-In  -->
<!DOCTYPE svg PUBLIC "-//W3C//DTD SVG 1.1//EN" "http://www.w3.org/Graphics/SVG/1.1/DTD/svg11.dtd" [
	<!ENTITY ns_flows "http://ns.adobe.com/Flows/1.0/">
]>
<svg version="1.1"
	 xmlns="http://www.w3.org/2000/svg" xmlns:xlink="http://www.w3.org/1999/xlink" xmlns:a="http://ns.adobe.com/AdobeSVGViewerExtensions/3.0/"
	 x="0px" y="0px" width="16px" height="16px" viewBox="0 0 16 16" enable-background="new 0 0 16 16" xml:space="preserve">
<defs>
</defs>
<path fill="#CDC2A4" d="M13.077,7.454H2.922C1.308,7.454,0,8.764,0,10.378v2.35c0,1.613,1.308,2.923,2.922,2.923h10.155
	c1.613,0,2.923-1.31,2.923-2.923v-2.35C16,8.764,14.69,7.454,13.077,7.454z M5.056,9.283H4.111v4.691H3.199V9.283H2.256V8.485h2.8
	V9.283z M7.723,13.975h-0.81V13.53c-0.149,0.164-0.305,0.289-0.467,0.374c-0.161,0.088-0.318,0.13-0.47,0.13
	c-0.188,0-0.328-0.06-0.424-0.182c-0.094-0.121-0.142-0.3-0.142-0.542V9.925h0.81v3.106c0,0.096,0.018,0.165,0.05,0.207
	c0.035,0.045,0.091,0.064,0.166,0.064c0.059,0,0.135-0.027,0.226-0.084c0.092-0.058,0.175-0.13,0.251-0.218V9.925h0.81V13.975z
	 M10.659,13.139c0,0.285-0.063,0.505-0.19,0.659c-0.126,0.153-0.311,0.229-0.55,0.229c-0.159,0-0.3-0.028-0.423-0.088
	c-0.124-0.059-0.241-0.149-0.347-0.274v0.311H8.331V8.485h0.818v1.768c0.109-0.122,0.226-0.217,0.347-0.281
	C9.62,9.907,9.744,9.876,9.87,9.876c0.257,0,0.452,0.085,0.587,0.258c0.136,0.173,0.202,0.426,0.202,0.757V13.139z M13.467,12.047
	h-1.549v0.763c0,0.213,0.026,0.361,0.079,0.444c0.054,0.082,0.146,0.123,0.274,0.123c0.135,0,0.229-0.035,0.282-0.105
	c0.052-0.07,0.08-0.224,0.08-0.462v-0.185h0.833v0.208c0,0.415-0.101,0.729-0.306,0.939c-0.201,0.208-0.505,0.313-0.908,0.313
	c-0.362,0-0.648-0.11-0.856-0.334c-0.207-0.221-0.313-0.527-0.313-0.918v-1.819c0-0.35,0.114-0.638,0.344-0.858
	s0.523-0.331,0.886-0.331c0.371,0,0.656,0.103,0.854,0.307c0.199,0.205,0.299,0.499,0.299,0.883V12.047z"/>
<path fill="#CDC2A4" d="M12.279,10.532c-0.129,0-0.221,0.037-0.277,0.112c-0.057,0.071-0.084,0.193-0.084,0.363v0.409h0.716v-0.409
	c0-0.17-0.029-0.292-0.085-0.363C12.494,10.569,12.402,10.532,12.279,10.532z"/>
<path fill="#CDC2A4" d="M9.488,10.519c-0.058,0-0.115,0.013-0.172,0.039s-0.111,0.068-0.167,0.124v2.523
	c0.065,0.064,0.13,0.115,0.192,0.144s0.127,0.044,0.195,0.044c0.1,0,0.172-0.029,0.219-0.087c0.046-0.058,0.069-0.149,0.069-0.279
	v-2.091c0-0.138-0.027-0.241-0.085-0.312C9.682,10.554,9.597,10.519,9.488,10.519z"/>
<polygon fill="#CDC2A4" points="4.252,6.048 5.277,6.048 5.277,3.539 6.472,0 5.43,0 4.794,2.418 4.729,2.418 4.063,0 3.03,0 
	4.252,3.651 "/>
<path fill="#CDC2A4" d="M7.861,6.16c0.414,0,0.739-0.108,0.977-0.325C9.073,5.616,9.19,5.318,9.19,4.937V2.632
	c0-0.339-0.12-0.619-0.359-0.834C8.589,1.582,8.28,1.475,7.903,1.475c-0.414,0-0.745,0.102-0.99,0.307
	C6.669,1.985,6.546,2.26,6.546,2.606v2.313c0,0.379,0.12,0.68,0.358,0.904C7.144,6.048,7.463,6.16,7.861,6.16z M7.483,2.573
	c0-0.098,0.035-0.176,0.104-0.237c0.07-0.06,0.161-0.089,0.271-0.089c0.121,0,0.219,0.029,0.293,0.089
	c0.074,0.062,0.111,0.14,0.111,0.237v2.43c0,0.119-0.037,0.214-0.11,0.282C8.08,5.354,7.982,5.388,7.858,5.388
	c-0.12,0-0.213-0.032-0.277-0.102C7.517,5.22,7.483,5.126,7.483,5.003V2.573z"/>
<path fill="#CDC2A4" d="M10.566,6.113c0.171,0,0.347-0.05,0.528-0.144c0.183-0.095,0.357-0.234,0.524-0.416v0.494h0.912V1.587
	h-0.912v3.387c-0.085,0.097-0.179,0.176-0.28,0.239c-0.103,0.063-0.188,0.094-0.255,0.094c-0.085,0-0.148-0.023-0.186-0.071
	c-0.037-0.047-0.059-0.123-0.059-0.229v-3.42H9.93v3.729c0,0.266,0.054,0.465,0.16,0.596C10.197,6.045,10.354,6.113,10.566,6.113z"
	/>
</svg>
