<!DOCTYPE svg PUBLIC "-//W3C//DTD SVG 1.1//EN" "http://www.w3.org/Graphics/SVG/1.1/DTD/svg11.dtd" [
	<!ENTITY ns_flows "http://ns.adobe.com/Flows/1.0/">
]><svg xmlns="http://www.w3.org/2000/svg" xmlns:xlink="http://www.w3.org/1999/xlink" width="20" height="20" viewBox="0 0 20 20"><defs><path id="a" d="M0 0h20v20H0z"/></defs><clipPath id="b"><use xlink:href="#a" overflow="visible"/></clipPath><path clip-path="url(#b)" fill-rule="evenodd" clip-rule="evenodd" fill="#FFF" d="M2.567 0h14.866C18.845 0 20 1.044 20 2.567v14.866C20 18.955 18.845 20 17.433 20H2.567C1.155 20 0 18.955 0 17.433V2.567C0 1.044 1.155 0 2.567 0M14.57 2.222c-.496 0-.9.405-.9.9v2.156c0 .496.404.9.9.9h2.26c.494 0 .9-.405.9-.9V3.122c0-.495-.406-.9-.9-.9h-2.26zm3.17 6.236h-1.76c.166.543.256 1.12.256 1.716 0 3.327-2.784 6.024-6.217 6.024-3.435 0-6.218-2.697-6.218-6.024 0-.596.09-1.172.256-1.716H2.223v8.45c0 .436.357.794.795.794h13.927c.438 0 .795-.358.795-.795v-8.45zm-7.72-2.394C7.8 6.064 6 7.807 6 9.956c0 2.15 1.8 3.893 4.017 3.893s4.016-1.744 4.016-3.894c0-2.15-1.798-3.892-4.017-3.892"/></svg>