<!DOCTYPE svg PUBLIC "-//W3C//DTD SVG 1.1//EN" "http://www.w3.org/Graphics/SVG/1.1/DTD/svg11.dtd" [
	<!ENTITY ns_flows "http://ns.adobe.com/Flows/1.0/">
]><svg xmlns="http://www.w3.org/2000/svg" xmlns:xlink="http://www.w3.org/1999/xlink" width="20" height="20" viewBox="0 0 20 20"><defs><path id="a" d="M0 0h19.68v19.682H0z"/></defs><clipPath id="b"><use xlink:href="#a" overflow="visible"/></clipPath><path clip-path="url(#b)" fill-rule="evenodd" clip-rule="evenodd" fill="#CDC2A4" d="M3.857 0h11.967c2.122 0 3.857 1.736 3.857 3.857v11.97c0 2.12-1.734 3.855-3.856 3.855H3.857C1.737 19.682 0 17.946 0 15.826V3.856C0 1.737 1.736 0 3.857 0m10.997 12.065c0-.746-.204-1.34-.612-1.78s-.952-.732-1.63-.876v-.06c.47-.198.84-.505 1.107-.923.27-.42.403-.895.403-1.432 0-.463-.098-.872-.293-1.227-.194-.352-.488-.637-.882-.85-.362-.196-.752-.324-1.168-.384-.416-.063-1.028-.093-1.834-.093H6.064v10.99h4.4c.763 0 1.39-.067 1.884-.206.496-.14.95-.368 1.362-.692.352-.272.628-.612.834-1.025.207-.415.31-.895.31-1.442M11.32 7.55c0-.18-.046-.36-.137-.547s-.23-.322-.426-.406c-.182-.08-.396-.123-.645-.13-.25-.008-.62-.01-1.11-.01H8.81V8.78h.348c.47 0 .803-.005.993-.016.19-.01.386-.06.588-.153.22-.103.372-.247.455-.428.084-.184.127-.396.127-.635m.692 4.464c0-.34-.066-.604-.205-.796-.14-.194-.346-.338-.62-.436-.167-.066-.398-.102-.69-.108-.293-.008-.686-.01-1.177-.01h-.51v2.75h.15c.717 0 1.213-.005 1.488-.015.274-.01.557-.076.84-.2.253-.108.435-.267.55-.476.116-.208.174-.445.174-.71"/></svg>