<!DOCTYPE svg PUBLIC "-//W3C//DTD SVG 1.1//EN" "http://www.w3.org/Graphics/SVG/1.1/DTD/svg11.dtd" [
	<!ENTITY ns_flows "http://ns.adobe.com/Flows/1.0/">
]><svg xmlns="http://www.w3.org/2000/svg" xmlns:xlink="http://www.w3.org/1999/xlink" width="20" height="20" viewBox="-2 -3.02 20 20"><defs><path id="a" d="M0 0h16v13.96H0z"/></defs><clipPath id="b"><use xlink:href="#a" overflow="visible"/></clipPath><path clip-path="url(#b)" fill="#FFF" d="M15.92 3.35c-.896 5.037-5.89 9.302-7.392 10.276-1.503.975-2.875-.39-3.37-1.42-.57-1.178-2.276-7.555-2.722-8.084-.446-.527-1.787.53-1.787.53L0 3.798S2.72.55 4.79.14c2.197-.43 2.194 3.372 2.723 5.482.51 2.042.854 3.21 1.3 3.21.447 0 1.3-1.138 2.233-2.883.935-1.746-.04-3.29-1.868-2.193.73-4.386 7.635-5.44 6.742-.406"/></svg>