<!DOCTYPE svg PUBLIC "-//W3C//DTD SVG 1.1//EN" "http://www.w3.org/Graphics/SVG/1.1/DTD/svg11.dtd" [
	<!ENTITY ns_flows "http://ns.adobe.com/Flows/1.0/">
]><svg xmlns="http://www.w3.org/2000/svg" width="16" height="16" viewBox="0 0 16 16"><path fill="#CDC2A4" d="M13.077 7.454H2.922C1.308 7.454 0 8.764 0 10.378v2.35c0 1.613 1.308 2.923 2.922 2.923h10.155C14.69 15.65 16 14.34 16 12.73v-2.35c0-1.614-1.31-2.924-2.923-2.924zm-8.02 1.83H4.11v4.69H3.2v-4.69h-.944v-.8h2.8v.8zm2.666 4.69h-.81v-.444c-.15.164-.305.29-.467.374-.16.088-.318.13-.47.13-.188 0-.328-.06-.424-.182-.094-.12-.142-.3-.142-.542V9.925h.81v3.106c0 .097.018.166.05.208.035.045.09.064.166.064.06 0 .135-.027.226-.084.092-.058.175-.13.25-.218V9.925h.81v4.05zm2.936-.835c0 .284-.064.504-.19.658-.127.153-.312.23-.55.23-.16 0-.3-.03-.424-.09-.124-.058-.24-.148-.347-.273v.31h-.82v-5.49h.82v1.768c.108-.122.225-.217.346-.28.124-.066.248-.097.374-.097.257 0 .452.085.587.258.136.173.202.426.202.757v2.25zm2.807-1.093h-1.55v.763c0 .213.027.36.08.444.054.082.146.123.274.123.136 0 .23-.035.283-.105.052-.07.08-.224.08-.462v-.185h.833v.208c0 .415-.1.73-.306.94-.2.207-.505.312-.908.312-.362 0-.648-.11-.856-.334-.207-.22-.313-.526-.313-.917v-1.82c0-.35.114-.637.344-.857s.523-.33.886-.33c.37 0 .656.102.854.306.2.205.3.5.3.883v1.032z"/><path fill="#CDC2A4" d="M12.28 10.532c-.13 0-.222.037-.278.112-.057.07-.084.193-.084.363v.41h.716v-.41c0-.17-.03-.292-.085-.363-.056-.075-.148-.112-.27-.112zM9.488 10.52c-.058 0-.115.012-.172.038s-.11.068-.167.124v2.523c.064.064.13.115.19.144s.128.043.196.043c.1 0 .172-.03.22-.087.045-.058.068-.15.068-.28v-2.09c0-.138-.027-.24-.085-.312-.058-.07-.143-.105-.252-.105zM4.252 6.048h1.025v-2.51L6.472 0H5.43l-.636 2.418H4.73L4.062 0H3.03l1.222 3.65M7.86 6.16c.415 0 .74-.108.978-.325.235-.22.352-.517.352-.898V2.632c0-.34-.12-.62-.36-.834-.24-.216-.55-.323-.927-.323-.414 0-.745.102-.99.307-.244.203-.367.478-.367.824V4.92c0 .378.12.68.358.903.24.225.56.337.957.337zm-.377-3.587c0-.098.035-.176.104-.237.07-.06.16-.09.27-.09.122 0 .22.03.294.09.075.062.112.14.112.237v2.43c0 .12-.037.214-.11.282-.072.07-.17.103-.294.103-.12 0-.213-.032-.277-.102-.063-.066-.097-.16-.097-.283v-2.43zM10.566 6.113c.17 0 .347-.05.528-.144.183-.096.357-.235.524-.417v.494h.912v-4.46h-.912v3.387c-.085.097-.18.176-.28.24-.103.062-.188.093-.255.093-.085 0-.148-.023-.186-.07-.037-.048-.06-.124-.06-.23v-3.42H9.93v3.73c0 .265.054.464.16.595.107.133.264.2.476.2z"/></svg>